# xmcd
#
# Track frame offsets: 
#        150
#        15550
#        33848
#        51953
#        65973
#        83270
#        107863
#        122343
#        141009
#        157050
#
# Disc length: 2302 seconds
#
# Revision: 0
# Processed by: cddbd v1.5.2PL0 Copyright (c) Steve Scherf et al.
# Submitted via: ExactAudioCopy v0.99pb4
#
DISCID=7c08fc0a
DTITLE=Marybeth D'Amico - Heaven, Hell, Sin and Redemption
DYEAR=2008
DGENRE=Country
TTITLE0=Back On My Feet
TTITLE1=A Love Story
TTITLE2=Ohio
TTITLE3=Oblivion
TTITLE4=Broken Dreams
TTITLE5=Every Week
TTITLE6=Save Your Soul
TTITLE7=Nothing Without You
TTITLE8=Where I Lay My Baby Down
TTITLE9=The Journey
EXTD=
EXTT0=
EXTT1=
EXTT2=
EXTT3=
EXTT4=
EXTT5=
EXTT6=
EXTT7=
EXTT8=
EXTT9=
PLAYORDER=
